HIERARCHY
ROOT Hips
{
	OFFSET 0.000000 0.000000 0.000000 
	CHANNELS 6 Xposition Yposition Zposition Zrotation Yrotation Xrotation
	JOINT LeftUpLeg
	{
		OFFSET 1.363060 -1.794630 0.839290 
		CHANNELS 3 Zrotation Yrotation Xrotation
		JOINT LeftLeg
		{
			OFFSET 2.448110 -6.726130 0.000000 
			CHANNELS 3 Zrotation Yrotation Xrotation
			JOINT LeftFoot
			{
				OFFSET 2.562200 -7.039590 0.000000 
				CHANNELS 3 Zrotation Yrotation Xrotation
				JOINT LeftToeBase
				{
					OFFSET 0.157640 -0.433110 2.322550 
					CHANNELS 3 Zrotation Yrotation Xrotation
					End Site
					{
						OFFSET 0.000000 0.000000 0.000000 
					}
				}
			}
		}
	}
	JOINT RightUpLeg
	{
		OFFSET -1.305520 -1.794630 0.839290 
		CHANNELS 3 Zrotation Yrotation Xrotation
		JOINT RightLeg
		{
			OFFSET -2.542530 -6.985550 0.000000 
			CHANNELS 3 Zrotation Yrotation Xrotation
			JOINT RightFoot
			{
				OFFSET -2.568260 -7.056230 0.000000 
				CHANNELS 3 Zrotation Yrotation Xrotation
				JOINT RightToeBase
				{
					OFFSET -0.164730 -0.452590 2.363150 
					CHANNELS 3 Zrotation Yrotation Xrotation
					End Site
					{
						OFFSET 0.000000 0.000000 0.000000 
					}
				}
			}
		}
	}
	JOINT Spine
	{
		OFFSET 0.028270 2.035590 -0.193380 
		CHANNELS 3 Zrotation Yrotation Xrotation
		JOINT Spine1
		{
			OFFSET 0.056720 2.048850 -0.042750 
			CHANNELS 3 Zrotation Yrotation Xrotation
			JOINT Neck1
			{
				OFFSET -0.054170 1.746240 0.172020 
				CHANNELS 3 Zrotation Yrotation Xrotation
				JOINT Head
				{
					OFFSET 0.104070 1.761360 -0.123970 
					CHANNELS 3 Zrotation Yrotation Xrotation
					End Site
					{
						OFFSET 0.000000 0.000000 0.000000 
					}
				}
			}
			JOINT LeftArm
			{
				OFFSET 3.362410 1.200890 -0.311210 
				CHANNELS 3 Zrotation Yrotation Xrotation
				JOINT LeftForeArm
				{
					OFFSET 4.983000 -0.000000 -0.000000 
					CHANNELS 3 Zrotation Yrotation Xrotation
					JOINT LeftHand
					{
						OFFSET 3.483560 -0.000000 -0.000000 
						CHANNELS 3 Zrotation Yrotation Xrotation
						JOINT LeftHandIndex1
						{
							OFFSET 0.715260 -0.000000 -0.000000 
							CHANNELS 3 Zrotation Yrotation Xrotation
							End Site
							{
								OFFSET 0.000000 0.000000 0.000000 
							}
						}
					}
				}
			}
			JOINT RightArm
			{
				OFFSET -3.136600 1.374050 -0.404650 
				CHANNELS 3 Zrotation Yrotation Xrotation
				JOINT RightForeArm
				{
					OFFSET -5.241900 -0.000000 -0.000000 
					CHANNELS 3 Zrotation Yrotation Xrotation
					JOINT RightHand
					{
						OFFSET -3.444170 -0.000000 -0.000000 
						CHANNELS 3 Zrotation Yrotation Xrotation
						JOINT RightHandIndex1
						{
							OFFSET -0.622530 -0.000000 -0.000000 
							CHANNELS 3 Zrotation Yrotation Xrotation
							End Site
							{
								OFFSET 0.000000 0.000000 0.000000 
							}
						}
					}
				}
			}
		}
	}
}
MOTION
Frames: 6
Frame Time: 0.041667
-0.609857 23.778398 -0.266028 -105.718828 80.629795 -106.374321 -2.542376 -1.958600 -25.131939 13.040647 19.076132 69.809482 -0.459966 -14.969532 6.559199 0.038200 1.261800 3.469400 28.878185 1.819898 -5.757688 -1.970728 -10.462357 27.741597 -1.174794 6.849771 -10.175294 -1.128200 -6.746500 18.966600 2.725897 2.184708 -1.501733 3.872060 1.177099 -0.724185 3.324239 -0.445280 26.346344 3.254500 -0.884300 16.071500 -90.118122 0.394485 23.886561 19.315684 -31.073873 -5.234128 0.212957 0.790227 -3.949621 -7.125000 0.000000 0.000000 80.750383 -0.465735 21.088840 -12.767271 20.453373 -2.512076 0.238397 -0.152079 -7.600224 7.125000 0.000000 0.000000 
-0.533662 23.772776 -0.251974 -105.759521 80.855138 -106.629938 -2.623088 -2.018898 -26.098503 13.387461 19.178980 70.856341 -0.367086 -13.811778 5.056271 0.071600 1.725800 4.748500 28.869252 1.641602 -5.153989 -1.908059 -10.366552 27.408967 -1.146671 6.243491 -10.583228 -0.839600 -5.844900 16.335000 2.769065 2.164313 -1.491935 4.191630 1.157943 -0.780905 3.447267 -0.249142 26.464341 3.396100 -0.834100 16.121400 -90.529834 0.733021 23.038028 19.201079 -30.948681 -5.183469 0.210604 0.789181 -3.668173 -7.125000 0.000000 0.000000 80.449657 -0.185163 21.473776 -12.679037 20.317133 -2.478033 0.246881 -0.151905 -7.283482 7.125000 0.000000 0.000000 
-0.461584 23.756614 -0.245750 -105.230224 80.946122 -106.251851 -2.590868 -2.124888 -27.173764 13.697942 19.253701 71.782431 -0.290815 -12.766986 3.891059 0.067100 1.670800 4.596600 29.043276 1.479585 -4.766606 -1.852709 -10.291538 27.149150 -1.067457 5.132368 -11.024013 -0.351700 -3.810100 10.543100 2.711145 2.292009 -1.503724 4.014120 1.222664 -0.880828 3.498234 -0.353611 26.520845 3.368800 -0.827200 16.140500 -90.390077 1.066524 22.888960 19.143607 -30.875217 -5.157419 0.209406 0.795047 -4.081328 -7.125000 0.000000 0.000000 80.676881 0.130431 20.940168 -12.537708 20.107012 -2.427912 0.245454 -0.162177 -6.474673 7.125000 0.000000 0.000000 
-0.373343 23.749085 -0.240630 -104.851995 80.976899 -106.074737 -2.598138 -2.102964 -28.023843 13.922128 19.301858 72.444466 -0.228207 -11.959917 2.675585 0.023100 0.980800 2.696000 29.198137 1.244540 -4.186132 -1.790449 -10.205410 26.836691 -1.002281 4.280527 -11.386312 -0.107900 -2.117900 5.831700 2.519707 2.643978 -1.423896 3.304888 1.411931 -0.636488 3.659426 -0.909563 26.572708 3.368700 -0.981700 16.231100 -89.820901 1.045628 23.399883 18.915743 -30.585608 -5.047830 0.221081 0.787734 -4.507628 -7.125000 0.000000 0.000000 81.208474 0.472943 19.826740 -12.481621 20.047152 -2.413815 0.232210 -0.171760 -6.101090 7.125000 0.000000 0.000000 
-0.283194 23.748482 -0.239927 -104.286092 80.958845 -105.621990 -2.587500 -2.064969 -28.867013 14.066543 19.326334 72.864730 -0.164682 -11.085186 1.581805 0.005900 0.496300 1.363700 29.262138 1.288048 -3.418918 -1.728443 -10.092222 26.443932 -1.030121 4.566742 -11.355483 -0.207200 -2.930900 8.086500 2.334535 3.035110 -1.261183 2.549730 1.634872 -0.027792 3.979198 -1.486051 26.518857 3.536000 -1.190500 16.240500 -89.461580 0.837042 23.702408 18.677088 -30.290194 -4.935226 0.237512 0.774377 -4.434310 -7.125000 0.000000 0.000000 81.691684 1.000499 18.380506 -12.470240 20.066298 -2.418292 0.226063 -0.175080 -5.683075 7.125000 0.000000 0.000000 
-0.192645 23.738544 -0.249163 -103.474144 80.870823 -104.972280 -2.513563 -2.211003 -29.604779 14.124583 19.331712 73.029783 -0.098875 -9.817755 0.824995 0.003200 0.364900 1.002500 29.414690 1.040410 -2.987166 -1.708622 -10.051607 26.307814 -1.066480 4.705091 -11.685579 -0.148000 -2.478900 6.831200 2.431783 3.030267 -1.424751 2.729290 1.621906 -0.574766 3.868652 -1.174164 26.691620 3.541200 -1.096400 16.225500 -90.000132 1.821246 22.738783 18.595409 -30.194156 -4.902369 0.238362 0.785996 -4.028362 -7.125000 0.000000 0.000000 81.470801 0.649766 18.291903 -12.526289 20.137737 -2.437517 0.230079 -0.172734 -5.379995 7.125000 0.000000 0.000000 
